PathFileType	4	(X/Y/Z)	D:\Share\Shared_Data\Ergonomics\Sit To Stand Pertubation\S3\Unperturbed.trc
DataRate	CameraRate	NumFrames	NumMarkers	Units	OrigDataRate	OrigDataStartFrame	OrigNumFrames	
100	100	16	18	m	100	4772	191
Frame#	Time	R_Thigh			R_ASIS			R_Pelvis			V_Sacral			L_Pelvis			L_ASIS			Clavical			R_Acromium			L_Acromium			Sternum			Torso			R_Thigh_Med			R_Thigh_Lat			R_Shank_Med			R_Shank_Lat			R_Shank			R_Heel			R_Toe			
		X1	Y1	Z1	X2	Y2	Z2	X3	Y3	Z3	X4	Y4	Z4	X5	Y5	Z5	X6	Y6	Z6	X7	Y7	Z7	X8	Y8	Z8	X9	Y9	Z9	X10	Y10	Z10	X11	Y11	Z11	X12	Y12	Z12	X13	Y13	Z13	X14	Y14	Z14	X15	Y15	Z15	X16	Y16	Z16	X17	Y17	Z17	X18	Y18	Z18	

4772	47.71	0.15004601	0.57999457	0.12202119	-0.00073517847	0.64353168	0.14631454	-0.11483478	0.63599683	0.19756805	-0.22043916	0.64242859	0.010148314	-0.11123912	0.65590454	-0.18747327	-0.0038738334	0.64798706	-0.13514038	0.022339451	1.0286279	-0.00090258998	-0.028822695	1.0919308	0.17133911	-0.015626499	1.0943892	-0.1612542	0.034074642	0.95144476	0.0063598442	0.024037203	1.0153262	-0.064113441	0.33608359	0.47054697	0.098627396	0.31335062	0.44796603	0.21435997	0.25966467	0.11034715	0.097780983	0.23535301	0.097516457	0.17691498	0.25595111	0.27158096	0.21007486	0.18095795	0.051747501	0.12012152	0.39737408	0.056957859	0.13987013
4773	47.72	0.15016905	0.57995502	0.12206952	0.00065699333	0.64294873	0.14655144	-0.11363422	0.6364765	0.19759241	-0.21925441	0.64376318	0.010572412	-0.10994759	0.65635779	-0.18748761	-0.0026121874	0.64784863	-0.1352523	0.028193586	1.0275912	-0.00092412859	-0.022364914	1.0914225	0.17130435	-0.0091591816	1.0936549	-0.16127988	0.039067825	0.95018787	0.0063630199	0.029755484	1.0141558	-0.06415419	0.33612152	0.47054993	0.098855644	0.31332513	0.44793243	0.21456969	0.2595968	0.11039164	0.097864761	0.23539473	0.097117386	0.1769182	0.25591969	0.2715694	0.21024345	0.18092976	0.051763523	0.12020667	0.3973519	0.056993828	0.13984044
4774	47.73	0.150289	0.57991248	0.12211784	0.0020468907	0.64229846	0.14669186	-0.11238111	0.63697229	0.19762485	-0.21799179	0.64516083	0.010919683	-0.10856065	0.65682764	-0.18748174	-0.0012438334	0.64750952	-0.13535202	0.034313313	1.0264855	-0.00091273403	-0.015605607	1.0908378	0.1712605	-0.0024111161	1.0928582	-0.16127429	0.044327217	0.94884558	0.0063590608	0.035758987	1.0128875	-0.064201355	0.33615302	0.47054477	0.099057785	0.3132933	0.4478847	0.21475212	0.25951965	0.11043074	0.09794014	0.23537947	0.096828979	0.17696388	0.25586935	0.2715553	0.21038435	0.18089415	0.051779743	0.12029305	0.39733124	0.057050003	0.13981691
4775	47.74	0.15040123	0.57986127	0.12215971	0.0034363079	0.64158502	0.14671371	-0.11107895	0.63748755	0.19766576	-0.21664256	0.64662408	0.011161241	-0.10707459	0.65731409	-0.18746077	0.00022548953	0.64699768	-0.1354341	0.040699596	1.0253187	-0.00084004772	-0.0085427999	1.0901721	0.1712041	0.0046301346	1.0919761	-0.16123183	0.049860313	0.94741241	0.0063469896	0.042054573	1.0115198	-0.064249489	0.33617438	0.47052652	0.099232605	0.31325345	0.44782529	0.21490732	0.25943423	0.11046292	0.098006477	0.23530421	0.096685623	0.17705362	0.25580328	0.27153619	0.21050023	0.18085098	0.051796349	0.12038193	0.39730942	0.057124348	0.13980139
4776	47.75	0.15050179	0.57979572	0.12218665	0.0048306551	0.64081073	0.14662874	-0.10972953	0.63802533	0.19771434	-0.21519595	0.64815601	0.01129445	-0.10548495	0.6578161	-0.18743283	0.0017930843	0.64634351	-0.13549765	0.047351646	1.0240985	-0.00068057919	-0.0011735115	1.0894203	0.17113197	0.011968156	1.0909695	-0.16114439	0.055671623	0.94588123	0.0063266749	0.048646118	1.0100526	-0.064291359	0.33618329	0.47049103	0.09937928	0.31320428	0.44775882	0.21503606	0.25934113	0.11048666	0.098063393	0.23517479	0.096691513	0.17717682	0.25572308	0.2715105	0.21059459	0.18079959	0.051812252	0.12047489	0.39727972	0.057211105	0.13979353
4777	47.76	0.15058711	0.57971118	0.12218986	0.0062339435	0.63997168	0.14647238	-0.10833308	0.63858783	0.19776871	-0.21364078	0.64976123	0.01133286	-0.10378712	0.6583324	-0.1874119	0.0034599581	0.64557306	-0.13554588	0.054268303	1.0228249	-0.00042426553	0.0065067835	1.0885751	0.17104105	0.019599243	1.0897961	-0.16099811	0.061759373	0.94424225	0.0062985115	0.055532879	1.0084866	-0.064319221	0.33617841	0.47043616	0.099497444	0.31314493	0.44769092	0.21513986	0.25923981	0.11050085	0.098111557	0.23500293	0.09682756	0.17731935	0.25562849	0.27147806	0.21067119	0.1807388	0.051823978	0.1205727	0.39723529	0.057305328	0.13978951
4778	47.77	0.1506544	0.57960504	0.12216194	0.0076348338	0.63905188	0.1462717	-0.10688786	0.6391759	0.19782584	-0.21196567	0.65144745	0.011297112	-0.10197653	0.65886163	-0.18742058	0.005230556	0.64470599	-0.13558551	0.061452148	1.0214838	-8.726003e-05	0.014504061	1.0876273	0.17092836	0.027517288	1.0884259	-0.1607729	0.068112625	0.94248193	0.0062624145	0.062708466	1.0068219	-0.064326813	0.33615857	0.47036163	0.099587105	0.31307416	0.44762637	0.21522102	0.25912814	0.11050489	0.098153107	0.23480351	0.097056755	0.17746533	0.25551768	0.27143964	0.21073303	0.1806669	0.051824425	0.120674	0.39717337	0.057407059	0.13978235
4779	47.78	0.15070258	0.57947711	0.12209797	0.0090014448	0.63802234	0.14602119	-0.10538908	0.63978967	0.19788159	-0.21015749	0.65322424	0.011207606	-0.10004797	0.6594032	-0.18749197	0.0071119299	0.64375677	-0.13562614	0.068910873	1.0200411	0.00028594705	0.022824688	1.0865659	0.17079091	0.035717674	1.0868474	-0.16044731	0.074711662	0.94058374	0.0062169228	0.070160065	1.0050543	-0.064312492	0.33612256	0.47026797	0.099648857	0.3129906	0.4475679	0.21528268	0.25900287	0.11049774	0.098191513	0.23459094	0.097334541	0.17759842	0.25538791	0.27139655	0.21078204	0.18058147	0.051803173	0.12077543	0.3970947	0.057521103	0.13976373
4780	47.79	0.150733	0.5793291	0.12199576	0.010304799	0.63685553	0.14570256	-0.10382829	0.64042914	0.1979312	-0.20819962	0.65510193	0.011081238	-0.097994652	0.65995776	-0.18767041	0.0091128511	0.6427359	-0.13567892	0.076652557	1.0184545	0.00063933408	0.031473438	1.0853807	0.17062611	0.044200542	1.0850742	-0.16000842	0.081533234	0.93852917	0.0061593046	0.077870193	1.003175	-0.064281464	0.33606873	0.47015533	0.099684845	0.31289252	0.44751489	0.2153291	0.25886029	0.11047704	0.098231209	0.23437888	0.097614281	0.17770181	0.25523674	0.27134952	0.21081912	0.18047963	0.051748871	0.12087234	0.3970007	0.057653431	0.13972624
4781	47.8	0.15075035	0.57916388	0.12185528	0.01155149	0.63554321	0.14532396	-0.10219328	0.64109387	0.19797028	-0.20607164	0.65709186	0.010931091	-0.095807472	0.66052734	-0.1880069	0.011243777	0.64165198	-0.13575613	0.084678787	1.0166918	0.00093091124	0.04045118	1.0840624	0.17043167	0.052977066	1.0831532	-0.15946741	0.088560715	0.9363009	0.0060872965	0.085821487	1.0011719	-0.06424511	0.3359957	0.47002264	0.099699959	0.31277859	0.44746298	0.21536568	0.2586983	0.11043845	0.098276932	0.23417683	0.097857864	0.17776038	0.25506323	0.27129785	0.21084451	0.18035947	0.051652206	0.12095908	0.39689191	0.057808155	0.13966519
4782	47.81	0.1507636	0.57898657	0.12167783	0.01279988	0.63410583	0.14493669	-0.10046848	0.64178387	0.19799622	-0.20374983	0.65920416	0.010767566	-0.093473618	0.66111542	-0.1885463	0.013517761	0.64051184	-0.13587064	0.092981567	1.0147395	0.0011426659	0.049753269	1.0826057	0.1702048	0.0620756	1.0811667	-0.15886205	0.095793091	0.93388635	0.0060019355	0.094000572	0.99903259	-0.064217743	0.33590393	0.46986746	0.099702843	0.31264828	0.44740375	0.21539969	0.25851755	0.11037572	0.098332886	0.23398714	0.098045929	0.17776381	0.25486803	0.27123727	0.21085808	0.18022141	0.051507671	0.12102832	0.39676782	0.057986713	0.13957948
4783	47.82	0.15078647	0.57880511	0.12146542	0.014147992	0.63258594	0.14461694	-0.0986353	0.64250073	0.19800981	-0.20120851	0.66144836	0.010599877	-0.090974762	0.66172717	-0.18930737	0.015951319	0.63931976	-0.13603503	0.10154489	1.0125986	0.0012732112	0.059368401	1.0810129	0.16994147	0.071538651	1.0791965	-0.15822467	0.10324171	0.9312821	0.0059092607	0.10239863	0.99674756	-0.064212257	0.33579755	0.46968661	0.099707214	0.31250305	0.44732486	0.21544196	0.2583222	0.11028178	0.098401703	0.23380675	0.098173096	0.17770728	0.25465366	0.27115945	0.21086017	0.18006895	0.051314453	0.12107102	0.39662845	0.058188232	0.13947244
4784	47.83	0.15083748	0.57863116	0.12122057	0.015695853	0.6310285	0.14442819	-0.096670364	0.64324689	0.19801691	-0.1984216	0.66383051	0.010437144	-0.088285919	0.66237012	-0.19025639	0.018564236	0.63807916	-0.13625995	0.11034795	1.0102791	0.0013281755	0.069277542	1.0792964	0.16963609	0.081410889	1.0772878	-0.1575598	0.11091724	0.92849719	0.0058199282	0.11101041	0.99431232	-0.064236343	0.33568637	0.46947742	0.099732628	0.3123483	0.44721234	0.21550786	0.25812018	0.11015043	0.098483521	0.23363004	0.098238853	0.17759163	0.25442477	0.27105289	0.21085265	0.17990817	0.051078087	0.12107882	0.39647574	0.058410294	0.13935135
4785	47.84	0.15093925	0.57848145	0.12094657	0.017511869	0.62946393	0.14439871	-0.094542679	0.64402655	0.19802773	-0.19536444	0.6663537	0.010288421	-0.08537648	0.66305341	-0.19129225	0.021376852	0.63679309	-0.13655168	0.11936834	1.0077979	0.0013147911	0.079454369	1.077478	0.16928175	0.091726959	1.0754453	-0.15687189	0.11882154	0.92555841	0.0057481232	0.11983325	0.99173248	-0.064290627	0.33558636	0.4692388	0.099803177	0.3121965	0.44705356	0.21561636	0.2579212	0.1099788	0.098574417	0.23344954	0.098244164	0.17742522	0.25418907	0.27090631	0.21083925	0.17974651	0.05081292	0.12104874	0.39631491	0.058649395	0.13922624
4786	47.85	0.15111786	0.57837708	0.12064906	0.019626385	0.62790704	0.14452438	-0.092213051	0.64484607	0.1980536	-0.19201569	0.66901764	0.010161729	-0.082214294	0.66378888	-0.19227971	0.024405285	0.63546606	-0.13691034	0.12858382	1.0051791	0.0012403058	0.089867241	1.0755881	0.16887025	0.10250217	1.0736399	-0.15619754	0.12694892	0.92251788	0.0057106614	0.12886493	0.989026	-0.064367729	0.3355191	0.4689733	0.099943657	0.31206802	0.44683936	0.21578685	0.25773499	0.1097712	0.098663132	0.23325768	0.098193176	0.17722478	0.25395844	0.27071191	0.21082553	0.1795916	0.050543213	0.12098771	0.39615469	0.058900631	0.13910789
4787	47.86	0.1514039	0.57834393	0.12033961	0.022043766	0.62636731	0.14478015	-0.089635506	0.64571478	0.19810336	-0.18835849	0.67181995	0.010063084	-0.078771645	0.66459125	-0.19311523	0.027657694	0.6341059	-0.13732935	0.13797284	1.0024538	0.001112502	0.10048148	1.0736578	0.16839221	0.11372898	1.0718232	-0.15559164	0.13528883	0.91945276	0.0057235055	0.13809967	0.98622223	-0.064453415	0.33551154	0.46868771	0.10017466	0.311991	0.44656491	0.21603522	0.2575683	0.10954326	0.098724625	0.23305351	0.098097084	0.17701016	0.25375009	0.27046823	0.21081888	0.17945097	0.050300728	0.12091315	0.39600613	0.059156288	0.1390076
